{"title":"Sin City 2 A Dame To Kill For 2014 720p HDCAM NEW VIDEO SOURCE E","uid":10872146,"size":2328473680,"categoryP":"video","categoryS":"movies","magnet":"?xt=urn:btih:6545a227c2efaeafd4f718184c3cdad4694f2cb4&amp;dn=Sin+City+2+A+Dame+To+Kill+For+2014+720p+HDCAM+NEW+VIDEO+SOURCE+E&amp;tr=udp%3A%2F%2Ftracker.openbittorrent.com%3A80&amp;tr=udp%3A%2F%2Fopen.demonii.com%3A1337&amp;tr=udp%3A%2F%2Ftracker.coppersurfer.tk%3A6969&amp;tr=udp%3A%2F%2Fexodus.desync.com%3A6969","seeders":7,"leechers":0,"uploader":"shawnmurthy","files":-1,"time":1408977442,"description":"[size=200][color=Red][b]VIDEO IS NOT THE RUSSIAN SOURCE BUT THE ITALIAN SOURCE WHICH IS MUCH MUCH BETTER...EVEN THOUGH BOTH ARE 3D THE ITALIAN SOURCE CAME OUT MUCH BETTER.....I HAD TO RAISE THE BITRATE ON THE VIDEO TO MAKE IT MUCH BETTER THAT IS WHY IT HAS A WHOPPING 3103 VIDEO BITRATE WHICH MADE IT LOOK MUCH BETTER....THE CONTRAST WAS ADJUSTED AND FLICKERING WAS STOPPED....AUDIO HAD SOME GLITCHES FIXED THAT AS WELL THAT IT WAS A LITTLE HOLLOW....THANKS TO RARBG FOR THE AUDIO[/b][/color][/size]\n\n[color=Blue][b]VIDEO SOURCE-SPECTRE\nAUDIO SOURCE-RARBG[/b][/color]\n  &lt;a href=&quot;\nhttp://i.imgur.com/fW5GLTr.jpg&quot; rel=&quot;nofollow&quot; target=&quot;_NEW&quot;&gt;\nhttp://i.imgur.com/fW5GLTr.jpg&lt;/a&gt;\n &lt;a href=&quot;\nhttp://i.imgur.com/54Ngwm9.jpg&quot; rel=&quot;nofollow&quot; target=&quot;_NEW&quot;&gt;\nhttp://i.imgur.com/54Ngwm9.jpg&lt;/a&gt;\n\nSin City 2 A Dame To Kill For 2014 720p HDCAM NEW VIDEO SOURCE ENG x264 Pimp4003\n\nENJOY\n\nPIMP4003\n\nVideo\nID                                       : 2\nFormat                                   : AVC\nFormat/Info                              : Advanced Video Codec\nFormat profile                           : &lt;a class=&quot;__cf_email__&quot; href=&quot;/cdn-cgi/l/email-protection&quot; data-cfemail=&quot;e5a7849680898c8b80a5a9d6cbd5&quot;&gt;[email&amp;#160;protected]&lt;/a&gt;&lt;script cf-hash='f9e31' type=&quot;text/javascript&quot;&gt;\n/* &lt;![CDATA[ */!function(){try{var t=&quot;currentScript&quot;in document?document.currentScript:function(){for(var t=document.getElementsByTagName(&quot;script&quot;),e=t.length;e--;)if(t[e].getAttribute(&quot;cf-hash&quot;))return t[e]}();if(t&amp;&amp;t.previousSibling){var e,r,n,i,c=t.previousSibling,a=c.getAttribute(&quot;data-cfemail&quot;);if(a){for(e=&quot;&quot;,r=parseInt(a.substr(0,2),16),n=2;a.length-n;n+=2)i=parseInt(a.substr(n,2),16)^r,e+=String.fromCharCode(i);e=document.createTextNode(e),c.parentNode.replaceChild(e,c)}}}catch(u){}}();/* ]]&gt; */&lt;/script&gt;\nFormat settings, CABAC                   : No\nFormat settings, ReFrames                : 1 frame\nFormat settings, GOP                     : M=1, N=25\nMuxing mode                              : Container profile=&lt;a class=&quot;__cf_email__&quot; href=&quot;/cdn-cgi/l/email-protection&quot; data-cfemail=&quot;e9ab889a8c8580878ca9ddc7d8&quot;&gt;[email&amp;#160;protected]&lt;/a&gt;&lt;script cf-hash='f9e31' type=&quot;text/javascript&quot;&gt;\n/* &lt;![CDATA[ */!function(){try{var t=&quot;currentScript&quot;in document?document.currentScript:function(){for(var t=document.getElementsByTagName(&quot;script&quot;),e=t.length;e--;)if(t[e].getAttribute(&quot;cf-hash&quot;))return t[e]}();if(t&amp;&amp;t.previousSibling){var e,r,n,i,c=t.previousSibling,a=c.getAttribute(&quot;data-cfemail&quot;);if(a){for(e=&quot;&quot;,r=parseInt(a.substr(0,2),16),n=2;a.length-n;n+=2)i=parseInt(a.substr(n,2),16)^r,e+=String.fromCharCode(i);e=document.createTextNode(e),c.parentNode.replaceChild(e,c)}}}catch(u){}}();/* ]]&gt; */&lt;/script&gt;\nCodec ID                                 : avc1\nCodec ID/Info                            : Advanced Video Coding\nDuration                                 : 1h 36mn\nBit rate                                 : 3 103 Kbps\nWidth                                    : 1 280 pixels\nHeight                                   : 720 pixels\nDisplay aspect ratio                     : 16:9\nFrame rate mode                          : Constant\nFrame rate                               : 29.970 fps\nOriginal frame rate                      : 29.000 fps\nColor space                              : YUV\nChroma subsampling                       : 4:2:0\nBit depth                                : 8 bits\nScan type                                : Progressive\nBits/(Pixel*Frame)                       : 0.112\nStream size                              : 2.10 GiB (97%)\nWriting library                          : Ã„\nLanguage                                 : English\n\nAudio\nID                                       : 1\nFormat                                   : AAC\nFormat/Info                              : Advanced Audio Codec\nFormat profile                           : LC\nCodec ID                                 : 40\nDuration                                 : 1h 36mn\nBit rate mode                            : Constant\nBit rate                                 : 98.2 Kbps\nChannel(s)                               : 2 channels\nChannel positions                        : Front: L R\nSampling rate                            : 48.0 KHz\nCompression mode                         : Lossy\nStream size                              : 68.0 MiB (3%)\nLanguage                                 : English\n","torrent":{"xt":"urn:btih:6545a227c2efaeafd4f718184c3cdad4694f2cb4","amp;dn":"Sin+City+2+A+Dame+To+Kill+For+2014+720p+HDCAM+NEW+VIDEO+SOURCE+E","amp;tr":["udp%3A%2F%2Ftracker.openbittorrent.com%3A80","udp%3A%2F%2Fopen.demonii.com%3A1337","udp%3A%2F%2Ftracker.coppersurfer.tk%3A6969","udp%3A%2F%2Fexodus.desync.com%3A6969"],"infoHash":"6545a227c2efaeafd4f718184c3cdad4694f2cb4","infoHashBuffer":{"type":"Buffer","data":[101,69,162,39,194,239,174,175,212,247,24,24,76,60,218,212,105,79,44,180]},"announce":[],"urlList":[]}}